# xmcd
#
# Track frame offsets:
#	150
#	12357
#	25173
#	38777
#	60363
#	75225
#	89596
#	108028
#	125508
#	142802
#	158479
#	192781
#	209491
#
# Disc length: 3332 seconds
#
# Revision: 0
# Processed by: cddbd v1.5.1PL0 Copyright (c) Steve Scherf et al.
# Submitted via: dBpowerAMP V4.0
#
DISCID=960d020d
DTITLE=Cletus and the Burners - Live At The Acoustic Café
DYEAR=2004
DGENRE=Country
TTITLE0=Five Dollar Rag
TTITLE1=Weary Blues
TTITLE2=Poor Boy
TTITLE3=Pickle Song
TTITLE4=Blue and Lonesome
TTITLE5=Whiskey River
TTITLE6=Summer evening
TTITLE7=Crossroads
TTITLE8=The Drinking Song
TTITLE9=When I'm Gone
TTITLE10=Uncle Inus
TTITLE11=Banks of the Ohio
TTITLE12=Salty Dog Blues
EXTD=
EXTT0=
EXTT1=
EXTT2=
EXTT3=
EXTT4=
EXTT5=
EXTT6=
EXTT7=
EXTT8=
EXTT9=
EXTT10=
EXTT11=
EXTT12=
PLAYORDER=
